<svg width="26px" height="26px" viewBox="266 117 26 26" version="1.1" xmlns="http://www.w3.org/2000/svg" xmlns:xlink="http://www.w3.org/1999/xlink">
    <g stroke="none" stroke-width="1" fill="none" fill-rule="evenodd" transform="translate(266.000000, 117.000000)">
        <rect fill="#40A00E" x="0" y="0" width="26" height="26"></rect>
        <path d="M7.35000854,16.46 L6.57000854,20 L4.79000854,20 L8.17000854,6 L10.4700085,6 L13.7900085,20 L12.0100085,20 L11.2500085,16.46 L7.35000854,16.46 Z M10.9300085,14.96 L9.29000854,7.32 L7.67000854,14.96 L10.9300085,14.96 Z M18.3400085,6 L18.3400085,7.8 L16.4400085,7.8 L16.4400085,6 L18.3400085,6 Z M13.6000085,11.5 L13.6000085,10 L18.2400085,10 L18.2400085,18.5 L21.2000085,18.5 L21.2000085,20 L16.5400085,20 L16.5400085,11.5 L13.6000085,11.5 Z" fill="#FFFFFF"></path>
    </g>
</svg>