<svg width="26px" height="26px" viewBox="232 219 26 26" version="1.1" xmlns="http://www.w3.org/2000/svg" xmlns:xlink="http://www.w3.org/1999/xlink">
    <g stroke="none" stroke-width="1" fill="none" fill-rule="evenodd" transform="translate(232.000000, 219.000000)">
        <rect fill="#6E547B" x="0" y="0" width="26" height="26"></rect>
        <path d="M11.7546219,17.9039939 C11.2692862,18.3679962 10.6159594,18.5999939 9.79462191,18.5999939 L9.47462191,18.5999939 C8.65328447,18.5999939 7.99995767,18.3679962 7.51462191,17.9039939 C7.02928615,17.4399916 6.78662191,16.7653317 6.78662191,15.8799939 L6.78662191,10.1199939 C6.78662191,9.22398942 7.02661951,8.54666286 7.50662191,8.0879939 C7.98662431,7.62932494 8.64261775,7.3999939 9.47462191,7.3999939 L9.79462191,7.3999939 C10.6266261,7.3999939 11.2826195,7.62932494 11.7626219,8.0879939 C12.2426243,8.54666286 12.4826219,9.22398942 12.4826219,10.1199939 L12.4826219,15.8799939 C12.4826219,16.7653317 12.2399577,17.4399916 11.7546219,17.9039939 L11.7546219,17.9039939 Z M10.7466219,8.9599939 C10.495954,8.7199927 10.1786238,8.5999939 9.79462191,8.5999939 L9.47462191,8.5999939 C9.09061999,8.5999939 8.77328983,8.7199927 8.52262191,8.9599939 C8.27195399,9.1999951 8.14662191,9.48532558 8.14662191,9.8159939 L8.14662191,14.1519939 L11.1226219,9.8159939 C11.1226219,9.48532558 10.9972898,9.1999951 10.7466219,8.9599939 L10.7466219,8.9599939 Z M8.52262191,17.0399939 C8.77328983,17.2799951 9.09061999,17.3999939 9.47462191,17.3999939 L9.79462191,17.3999939 C10.1786238,17.3999939 10.495954,17.2799951 10.7466219,17.0399939 C10.9972898,16.7999927 11.1226219,16.5146622 11.1226219,16.1839939 L11.1226219,11.8639939 L8.14662191,16.1839939 C8.14662191,16.5146622 8.27195399,16.7999927 8.52262191,17.0399939 L8.52262191,17.0399939 Z M16.888,17.3999939 L16.888,8.6639939 L14.632,9.4959939 L14.632,8.1999939 L16.728,7.3999939 L18.248,7.3999939 L18.248,17.3999939 L19.992,17.3999939 L19.992,18.5999939 L14.792,18.5999939 L14.792,17.3999939 L16.888,17.3999939 Z" fill="#FFFFFF"></path>
    </g>
</svg>