<svg width="26px" height="26px" viewBox="232 253 26 26" version="1.1" xmlns="http://www.w3.org/2000/svg" xmlns:xlink="http://www.w3.org/1999/xlink">
    <g id="dmg" stroke="none" stroke-width="1" fill="none" fill-rule="evenodd" transform="translate(232.000000, 253.000000)">
        <rect fill="#888888" x="0" y="0" width="26" height="26"></rect>
        <circle fill="#FFFFFF" cx="13" cy="13" r="2"></circle>
        <path d="M20,13 C20,9.13400675 16.8659932,6 13,6 C9.13400675,6 6,9.13400675 6,13 C6,16.8659932 9.13400675,20 13,20 C16.8659932,20 20,16.8659932 20,13 Z M5,13 C5,8.581722 8.581722,5 13,5 C17.418278,5 21,8.581722 21,13 C21,17.418278 17.418278,21 13,21 C8.581722,21 5,17.418278 5,13 Z" fill="#FFFFFF"></path>
    </g>
</svg>