<svg width="26px" height="26px" viewBox="232 185 26 26" version="1.1" xmlns="http://www.w3.org/2000/svg" xmlns:xlink="http://www.w3.org/1999/xlink">
    <g stroke="none" stroke-width="1" fill="none" fill-rule="evenodd" transform="translate(232.000000, 185.000000)">
        <rect fill="#2E91B4" x="0" y="0" width="26" height="26"></rect>
        <path d="M7.91819499,11.6589817 C8.08915107,11.5211139 8.17462782,11.2371105 8.17462782,10.8069629 L8.17462782,7.01837457 C8.17462782,6.27940314 8.31249356,5.75827065 8.58822917,5.45496148 C8.86396478,5.15165231 9.32719365,5 9.97792969,5 L11.0532932,5 L11.0532932,6.15808377 L10.2095464,6.15808377 C9.94484026,6.15808377 9.75458554,6.19944349 9.63877659,6.28216417 C9.52296763,6.36488486 9.46506402,6.52756643 9.46506402,6.77021376 L9.46506402,10.8069629 C9.46506402,11.3584341 9.3299556,11.8106337 9.0597347,12.1635753 C8.78951381,12.5165169 8.45587872,12.7260728 8.05881945,12.7922494 C8.45587872,12.8363671 8.78951381,13.0348937 9.0597347,13.3878353 C9.3299556,13.7407769 9.46506402,14.1929765 9.46506402,14.7444477 L9.46506402,18.7811969 C9.46506402,19.0238442 9.52296763,19.1865258 9.63877659,19.2692464 C9.75458554,19.3519671 9.94484026,19.3933268 10.2095464,19.3933268 L11.0532932,19.3933268 L11.0532932,20.5514106 L9.97792969,20.5514106 C9.32719365,20.5514106 8.86396478,20.3997583 8.58822917,20.0964491 C8.31249356,19.79314 8.17462782,19.2720075 8.17462782,18.533036 L8.17462782,14.7444477 C8.17462782,14.3143002 8.08915107,14.0302967 7.91819499,13.8924289 C7.74723891,13.7545611 7.44117698,13.6856283 7,13.6856283 L7,11.8657823 C7.44117698,11.8657823 7.74723891,11.7968495 7.91819499,11.6589817 L7.91819499,11.6589817 Z M18.081805,13.8924289 C17.9108489,14.0302967 17.8253722,14.3143002 17.8253722,14.7444477 L17.8253722,18.533036 C17.8253722,19.2720075 17.6875064,19.79314 17.4117708,20.0964491 C17.1360352,20.3997583 16.6728063,20.5514106 16.0220703,20.5514106 L14.9467068,20.5514106 L14.9467068,19.3933268 L15.7904536,19.3933268 C16.0551597,19.3933268 16.2454145,19.3519671 16.3612234,19.2692464 C16.4770324,19.1865258 16.534936,19.0238442 16.534936,18.7811969 L16.534936,14.7444477 C16.534936,14.1929765 16.6700444,13.7407769 16.9402653,13.3878353 C17.2104862,13.0348937 17.5441213,12.8363671 17.9411806,12.7922494 C17.5441213,12.7260728 17.2104862,12.5165169 16.9402653,12.1635753 C16.6700444,11.8106337 16.534936,11.3584341 16.534936,10.8069629 L16.534936,6.77021376 C16.534936,6.52756643 16.4770324,6.36488486 16.3612234,6.28216417 C16.2454145,6.19944349 16.0551597,6.15808377 15.7904536,6.15808377 L14.9467068,6.15808377 L14.9467068,5 L16.0220703,5 C16.6728063,5 17.1360352,5.15165231 17.4117708,5.45496148 C17.6875064,5.75827065 17.8253722,6.27940314 17.8253722,7.01837457 L17.8253722,10.8069629 C17.8253722,11.2371105 17.9108489,11.5211139 18.081805,11.6589817 C18.2527611,11.7968495 18.558823,11.8657823 19,11.8657823 L19,13.6856283 C18.558823,13.6856283 18.2527611,13.7545611 18.081805,13.8924289 L18.081805,13.8924289 Z" fill="#FFFFFF"></path>
    </g>
</svg>