<svg xmlns="http://www.w3.org/2000/svg" viewBox="0 0 485 485">
	<g fill="#212121">
		<path d="M168.404,305.486h68.192l18.428,61.115h57.887l-73.885-238.312h-70.621L95.455,366.601h55.875L168.404,305.486z
			M201.199,168.546h0.693c3.505,14.264,26.966,96.545,26.966,96.545h-52.75C176.108,265.091,197.658,182.81,201.199,168.546z"/>
		<rect x="333.95" y="193.775" width="53.824" height="172.826"/>
		<path d="M360.533,172.503c17.769,0,29.012-12.078,29.012-26.86c-0.415-15.583-11.243-27.244-28.595-27.244
			c-17.352,0-28.735,11.66-28.353,27.244C332.215,160.425,343.598,172.503,360.533,172.503z"/>
		<path d="M0,0v485h485V0H0z M455,455H30V30h425V455z"/>
	</g>
</svg>
