<svg xmlns="http://www.w3.org/2000/svg" viewBox="0 0 485 485">
	<g fill="#212121">
		<path d="M321.27,328.414c-16.269,0-37.082-7.252-47.173-13.307l-9.743,39.196c13.307,7.252,33.866,12.299,56.916,12.299
			c50.361,0,76.376-24.124,76.376-57.012c-0.379-25.891-14.412-42.887-47.932-54.333c-21.537-7.631-28.318-11.952-28.318-20.213
			c0-8.988,7.506-14.412,20.813-14.412c15.136,0,30.177,5.803,38.185,10.122l9.714-37.839c-10.817-5.424-29.168-10.091-49.76-10.091
			c-43.58,0-71.676,24.88-71.676,57.644c-0.379,20.938,13.655,40.774,50.139,52.976c20.432,6.906,25.856,11.194,25.856,20.182
			C344.668,322.644,337.762,328.414,321.27,328.414z"/>
		<path d="M141.687,276.194c5.045,0.726,11.573,0.978,18.698,0.978c32.417,0,60.23-7.883,78.834-25.479
			c14.539-13.686,22.42-33.899,22.42-57.643c0-23.777-10.343-43.99-25.983-56.194c-16.146-13.055-40.268-19.456-74.167-19.456
			c-33.489,0-57.264,2.21-74.136,5.046v239.593h54.333V276.194z M141.782,162.012c3.847-1.105,11.479-2.209,22.547-2.209
			c27.465,0,42.885,13.276,43.01,35.572c0,24.911-18.132,39.669-47.3,39.669c-7.884,0-13.559-0.346-18.257-1.357V162.012z"/>
		<path d="M0,0v485h485V0H0z M455,455H30V30h425V455z"/>
	</g>
</svg>
