<svg xmlns="http://www.w3.org/2000/svg" width="554.625px" height="554.625px" viewBox="0 0 554.625 554.625">
	<g fill="#212121">
		<path d="M267.75,153h95.625L248.625,19.125v114.75C248.625,145.35,258.188,153,267.75,153z"/>
		<path d="M133.875,401.625V267.75c0-32.513,24.862-57.375,57.375-57.375h172.125v-38.25H267.75c-21.038,0-38.25-17.212-38.25-38.25
			V19.125H38.25C17.212,19.125,0,36.337,0,57.375V497.25c0,21.037,17.212,38.25,38.25,38.25h286.875
			c21.037,0,38.25-17.213,38.25-38.25V459H191.25C158.737,459,133.875,434.138,133.875,401.625z"/>
		<path d="M516.375,229.5H191.25c-21.038,0-38.25,17.212-38.25,38.25v133.875c0,21.037,17.212,38.25,38.25,38.25h325.125
			c21.037,0,38.25-17.213,38.25-38.25V267.75C554.625,246.712,537.412,229.5,516.375,229.5z M286.875,286.875l-38.25,57.375v57.375
			H229.5V344.25l-38.25-57.375V267.75h19.125v19.125l28.688,42.075l28.688-42.075V267.75h19.125V286.875z M401.625,401.625H382.5
			V306l-19.125,38.25h-9.562h-9.562L325.125,306v95.625H306V267.75h9.562h9.562l28.688,57.375L382.5,267.75h9.562h9.562V401.625z
			 M516.375,401.625H420.75V267.75h19.125V382.5h76.5V401.625z"/>
	</g>
</svg>
