<svg width="26px" height="26px" viewBox="266 185 26 26" version="1.1" xmlns="http://www.w3.org/2000/svg" xmlns:xlink="http://www.w3.org/1999/xlink">
    <g stroke="none" stroke-width="1" fill="none" fill-rule="evenodd" transform="translate(266.000000, 185.000000)">
        <rect fill="#357B73" x="0" y="0" width="26" height="26"></rect>
        <path d="M8.66879783,9.82883291 L8.66879783,11.2012787 L4.04425223,13.2301116 L8.66879783,15.2738624 L8.66879783,16.676144 L3,14.0655134 L3,12.499135 L8.66879783,9.82883291 Z M15.013915,11.4474239 C14.9741338,11.6513027 14.8846273,11.8551785 14.745393,12.0590573 C14.6061587,12.2629362 14.3625023,12.5438869 14.0144165,12.901918 L13.2237683,13.7074841 L13.2237683,15.1396014 L11.9557478,15.1396014 L11.9557478,13.3345368 L12.8209853,12.4245456 C13.1392352,12.0864051 13.3630013,11.8328035 13.4922903,11.6637333 C13.6215794,11.494663 13.7061132,11.3429993 13.7458945,11.2087376 C13.7856757,11.074476 13.805566,10.8880042 13.805566,10.6493168 L13.805566,9.90342235 C13.805566,9.59511777 13.7160596,9.35643393 13.537044,9.18736368 C13.3580284,9.01829342 13.0845365,8.93375957 12.7165601,8.93375957 L10.851824,8.93375957 L10.851824,7.8 L12.5673812,7.8 C14.2381931,7.8 15.0735866,8.54588699 15.0735866,10.0376834 L15.0735866,10.5150558 C15.0735866,10.9327588 15.0536963,11.243545 15.013915,11.4474239 L15.013915,11.4474239 Z M13.3431114,16.7507334 L13.3431114,18.2425223 L11.8513225,18.2425223 L11.8513225,16.7507334 L13.3431114,16.7507334 Z M22.0452551,13.2301116 L17.3312022,11.2012787 L17.3312022,9.82883291 L23,12.499135 L23,14.0655134 L17.3312022,16.676144 L17.3312022,15.2738624 L22.0452551,13.2301116 Z" fill="#FFFFFF"></path>
    </g>
</svg>