<svg width="26px" height="26px" viewBox="232 117 26 26" version="1.1" xmlns="http://www.w3.org/2000/svg" xmlns:xlink="http://www.w3.org/1999/xlink">
    <g stroke="none" stroke-width="1" fill="none" fill-rule="evenodd" transform="translate(232.000000, 117.000000)">
        <rect fill="#2165C6" x="0" y="0" width="26" height="26"></rect>
        <path d="M12.205,13.79 C11.6316638,14.3033359 10.7850056,14.56 9.66500003,14.56 L7.58500003,14.56 L7.58500003,20 L5.84500003,20 L5.84500003,6 L9.62500003,6 C10.758339,6 11.6149971,6.2499975 12.195,6.75 C12.7750029,7.2500025 13.065,8.0399946 13.065,9.12 L13.065,11.4 C13.065,12.4800054 12.7783362,13.2766641 12.205,13.79 L12.205,13.79 Z M10.975,7.84 C10.7416655,7.6133322 10.3716692,7.5 9.86500003,7.5 L7.58500003,7.5 L7.58500003,13.06 L9.86500003,13.06 C10.3716692,13.06 10.7416655,12.9433345 10.975,12.71 C11.2083345,12.4766655 11.325,12.1066692 11.325,11.6 L11.325,8.94 C11.325,8.4333308 11.2083345,8.0666678 10.975,7.84 L10.975,7.84 Z M19.825,19.38 C19.3116641,19.7933354 18.5683382,20 17.595,20 L14.615,20 L14.615,18.5 L17.795,18.5 C18.1550018,18.5 18.4283324,18.4233341 18.615,18.27 C18.8016676,18.1166659 18.895,17.8933348 18.895,17.6 L18.895,16.54 C18.895,15.939997 18.6083362,15.64 18.035,15.64 L17.295,15.64 C16.361662,15.64 15.6650023,15.4366687 15.205,15.03 C14.7449977,14.6233313 14.515,13.9800044 14.515,13.1 L14.515,12.52 C14.515,11.6266622 14.7683308,10.9833353 15.275,10.59 C15.7816692,10.1966647 16.5283284,10 17.515,10 L20.195,10 L20.195,11.5 L17.315,11.5 C16.981665,11.5 16.715001,11.5766659 16.515,11.73 C16.314999,11.8833341 16.215,12.1066652 16.215,12.4 L16.215,13.12 C16.215,13.4266682 16.3049991,13.6533326 16.485,13.8 C16.6650009,13.9466674 16.8949986,14.02 17.175,14.02 L17.855,14.02 C18.7483378,14.02 19.428331,14.2366645 19.895,14.67 C20.361669,15.1033355 20.595,15.7466624 20.595,16.6 L20.595,17.5 C20.595,18.3400042 20.3383359,18.9666646 19.825,19.38 L19.825,19.38 Z" fill="#FFFFFF"></path>
    </g>
</svg>