<svg width="26px" height="26px" viewBox="164 253 26 26" version="1.1" xmlns="http://www.w3.org/2000/svg" xmlns:xlink="http://www.w3.org/1999/xlink">
    <g stroke="none" stroke-width="1" fill="none" fill-rule="evenodd" transform="translate(164.000000, 253.000000)">
        <rect fill="#7931D0" x="0" y="0" width="26" height="26"></rect>
        <path d="M7.00137843,19.4331188 C7.38784797,19.6458311 7.83604703,19.8600583 8.33858047,20.0606609 C9.77656406,20.6346788 11.349149,20.9787982 13,20.9787982 C14.650851,20.9787982 16.2234359,20.6346788 17.6614195,20.0606609 C18.163953,19.8600583 18.612152,19.6458311 18.9986216,19.4331188 C19.2231668,19.3095294 19,6.44821648 19,6.44821648 C18.865882,6.26518709 18.6779597,6.06183983 17.9939622,5.68982783 C16.7768241,5.02785182 15.1358081,4.62270224 13,4.62270224 C10.8641919,4.62270224 9.22317586,5.02785182 8.00603784,5.68982783 C7.32204031,6.06183983 7.13549646,6.11509653 7.00137843,6.29812592 L7.00137843,19.4331188 Z M13,3.62270224 C18.2579929,3.62270224 20,6 20,6 L20,20 C20,20 17.0857484,21.9787982 13,21.9787982 C8.91425162,21.9787982 6,20 6,20 L6,6 C6,6 7.74200711,3.62270224 13,3.62270224 Z" fill="#FFFFFF"></path>
        <path d="M7.98224046,7.85829544 C9.41371582,8.44153557 11.0909364,8.79050903 13,8.79050903 C14.9090636,8.79050903 16.5862842,8.44153557 18.0177595,7.85829544 C18.8869361,7.50415826 19.4871695,7.14482636 19.808054,6.89383083 C20.0255608,6.72369729 20.0639644,6.40945274 19.8938308,6.19194598 C19.7236973,5.97443922 19.4094527,5.93603563 19.191946,6.10616917 C19.1363351,6.14966793 19.0117261,6.23581706 18.8197138,6.35076597 C18.4905361,6.5478294 18.0969361,6.74621762 17.6404369,6.93221359 C16.3253274,7.46804161 14.7754989,7.79050903 13,7.79050903 C11.2245011,7.79050903 9.67467259,7.46804161 8.35956313,6.93221359 C7.90306395,6.74621762 7.50946391,6.5478294 7.18028624,6.35076597 C6.98827387,6.23581706 6.86366489,6.14966793 6.80805402,6.10616917 C6.59054726,5.93603563 6.27630271,5.97443922 6.10616917,6.19194598 C5.93603563,6.40945274 5.97443922,6.72369729 6.19194598,6.89383083 C6.51283055,7.14482636 7.11306388,7.50415826 7.98224046,7.85829544 Z" fill="#FFFFFF"></path>
        <path d="M7.98224046,11.8582954 C9.41371582,12.4415356 11.0909364,12.790509 13,12.790509 C14.9090636,12.790509 16.5862842,12.4415356 18.0177595,11.8582954 C18.8869361,11.5041583 19.4871695,11.1448264 19.808054,10.8938308 C20.0255608,10.7236973 20.0639644,10.4094527 19.8938308,10.191946 C19.7236973,9.97443922 19.4094527,9.93603563 19.191946,10.1061692 C19.1363351,10.1496679 19.0117261,10.2358171 18.8197138,10.350766 C18.4905361,10.5478294 18.0969361,10.7462176 17.6404369,10.9322136 C16.3253274,11.4680416 14.7754989,11.790509 13,11.790509 C11.2245011,11.790509 9.67467259,11.4680416 8.35956313,10.9322136 C7.90306395,10.7462176 7.50946391,10.5478294 7.18028624,10.350766 C6.98827387,10.2358171 6.86366489,10.1496679 6.80805402,10.1061692 C6.59054726,9.93603563 6.27630271,9.97443922 6.10616917,10.191946 C5.93603563,10.4094527 5.97443922,10.7236973 6.19194598,10.8938308 C6.51283055,11.1448264 7.11306388,11.5041583 7.98224046,11.8582954 Z" fill="#FFFFFF"></path>
        <path d="M7.98224046,16.8582954 C9.41371582,17.4415356 11.0909364,17.790509 13,17.790509 C14.9090636,17.790509 16.5862842,17.4415356 18.0177595,16.8582954 C18.8869361,16.5041583 19.4871695,16.1448264 19.808054,15.8938308 C20.0255608,15.7236973 20.0639644,15.4094527 19.8938308,15.191946 C19.7236973,14.9744392 19.4094527,14.9360356 19.191946,15.1061692 C19.1363351,15.1496679 19.0117261,15.2358171 18.8197138,15.350766 C18.4905361,15.5478294 18.0969361,15.7462176 17.6404369,15.9322136 C16.3253274,16.4680416 14.7754989,16.790509 13,16.790509 C11.2245011,16.790509 9.67467259,16.4680416 8.35956313,15.9322136 C7.90306395,15.7462176 7.50946391,15.5478294 7.18028624,15.350766 C6.98827387,15.2358171 6.86366489,15.1496679 6.80805402,15.1061692 C6.59054726,14.9360356 6.27630271,14.9744392 6.10616917,15.191946 C5.93603563,15.4094527 5.97443922,15.7236973 6.19194598,15.8938308 C6.51283055,16.1448264 7.11306388,16.5041583 7.98224046,16.8582954 Z" fill="#FFFFFF"></path>
    </g>
</svg>